<?xml version="1.0" encoding="UTF-8" standalone="no"?>
<!DOCTYPE svg PUBLIC "-//W3C//DTD SVG 1.1//EN"
 "http://www.w3.org/Graphics/SVG/1.1/DTD/svg11.dtd">
<!-- Generated by graphviz version 2.44.1 (20200629.0846)
 -->
<!-- Title: dependencies Pages: 1 -->
<svg width="1803pt" height="284pt"
 viewBox="0.00 0.00 1803.00 284.00" xmlns="http://www.w3.org/2000/svg" xmlns:xlink="http://www.w3.org/1999/xlink">
<g id="graph0" class="graph" transform="scale(1 1) rotate(0) translate(4 280)">
<title>dependencies</title>
<polygon fill="white" stroke="transparent" points="-4,4 -4,-280 1799,-280 1799,4 -4,4"/>
<text text-anchor="start" x="876.51" y="-42.4" font-family="sans-serif" font-weight="bold" font-size="14.00">Legend</text>
<polygon fill="#ffffb3" stroke="transparent" points="663.5,-10 663.5,-30 683.5,-30 683.5,-10 663.5,-10"/>
<text text-anchor="start" x="687.13" y="-15.4" font-family="sans-serif" font-size="14.00"> &#160;Declarations</text>
<polygon fill="#8dd3c7" stroke="transparent" points="776.5,-10 776.5,-30 796.5,-30 796.5,-10 776.5,-10"/>
<text text-anchor="start" x="800.23" y="-15.4" font-family="sans-serif" font-size="14.00"> &#160;Module</text>
<polygon fill="#80b1d3" stroke="transparent" points="862.5,-10 862.5,-30 882.5,-30 882.5,-10 862.5,-10"/>
<text text-anchor="start" x="886.28" y="-15.4" font-family="sans-serif" font-size="14.00"> &#160;Bootstrap</text>
<polygon fill="#fdb462" stroke="transparent" points="959.5,-10 959.5,-30 979.5,-30 979.5,-10 959.5,-10"/>
<text text-anchor="start" x="983.17" y="-15.4" font-family="sans-serif" font-size="14.00"> &#160;Providers</text>
<polygon fill="#fb8072" stroke="transparent" points="1055.5,-10 1055.5,-30 1075.5,-30 1075.5,-10 1055.5,-10"/>
<text text-anchor="start" x="1079.23" y="-15.4" font-family="sans-serif" font-size="14.00"> &#160;Exports</text>
<g id="clust1" class="cluster">
<title>cluster_AppModule</title>
<polygon fill="none" stroke="black" stroke-dasharray="1,5" points="8,-70 8,-268 1787,-268 1787,-70 8,-70"/>
</g>
<g id="clust11" class="cluster">
<title>cluster_AppModule_imports</title>
<polygon fill="none" stroke="black" points="1635,-78 1635,-130 1779,-130 1779,-78 1635,-78"/>
</g>
<g id="clust2" class="cluster">
<title>cluster_AppModule_declarations</title>
<polygon fill="none" stroke="black" points="507,-78 507,-130 1627,-130 1627,-78 507,-78"/>
</g>
<g id="clust13" class="cluster">
<title>cluster_AppModule_bootstrap</title>
<polygon fill="none" stroke="black" points="841,-208 841,-260 965,-260 965,-208 841,-208"/>
</g>
<g id="clust14" class="cluster">
<title>cluster_AppModule_providers</title>
<polygon fill="none" stroke="black" points="16,-78 16,-130 499,-130 499,-78 16,-78"/>
</g>
<!-- AppComponent -->
<g id="node1" class="node">
<title>AppComponent</title>
<polygon fill="#ffffb3" stroke="black" points="1618.94,-122 1513.06,-122 1513.06,-86 1618.94,-86 1618.94,-122"/>
<text text-anchor="middle" x="1566" y="-99.8" font-family="Times,serif" font-size="14.00">AppComponent</text>
</g>
<!-- AppModule -->
<g id="node9" class="node">
<title>AppModule</title>
<polygon fill="#8dd3c7" stroke="black" points="944.66,-187 941.66,-191 920.66,-191 917.66,-187 861.34,-187 861.34,-151 944.66,-151 944.66,-187"/>
<text text-anchor="middle" x="903" y="-164.8" font-family="Times,serif" font-size="14.00">AppModule</text>
</g>
<!-- AppComponent&#45;&gt;AppModule -->
<g id="edge1" class="edge">
<title>AppComponent&#45;&gt;AppModule</title>
<path fill="none" stroke="black" d="M1566,-122.28C1566,-143.32 1566,-175 1566,-175 1566,-175 954.72,-175 954.72,-175"/>
<polygon fill="black" stroke="black" points="954.72,-171.5 944.72,-175 954.72,-178.5 954.72,-171.5"/>
</g>
<!-- CharacterComponent -->
<g id="node2" class="node">
<title>CharacterComponent</title>
<polygon fill="#ffffb3" stroke="black" points="1494.74,-122 1359.26,-122 1359.26,-86 1494.74,-86 1494.74,-122"/>
<text text-anchor="middle" x="1427" y="-99.8" font-family="Times,serif" font-size="14.00">CharacterComponent</text>
</g>
<!-- CharacterComponent&#45;&gt;AppModule -->
<g id="edge2" class="edge">
<title>CharacterComponent&#45;&gt;AppModule</title>
<path fill="none" stroke="black" d="M1427,-122.11C1427,-141.34 1427,-169 1427,-169 1427,-169 955,-169 955,-169"/>
<polygon fill="black" stroke="black" points="955,-165.5 945,-169 955,-172.5 955,-165.5"/>
</g>
<!-- CharactersComponent -->
<g id="node3" class="node">
<title>CharactersComponent</title>
<polygon fill="#ffffb3" stroke="black" points="1341.68,-122 1200.32,-122 1200.32,-86 1341.68,-86 1341.68,-122"/>
<text text-anchor="middle" x="1271" y="-99.8" font-family="Times,serif" font-size="14.00">CharactersComponent</text>
</g>
<!-- CharactersComponent&#45;&gt;AppModule -->
<g id="edge3" class="edge">
<title>CharactersComponent&#45;&gt;AppModule</title>
<path fill="none" stroke="black" d="M1271,-122.02C1271,-139.37 1271,-163 1271,-163 1271,-163 954.86,-163 954.86,-163"/>
<polygon fill="black" stroke="black" points="954.86,-159.5 944.86,-163 954.86,-166.5 954.86,-159.5"/>
</g>
<!-- FavoritesComponent -->
<g id="node4" class="node">
<title>FavoritesComponent</title>
<polygon fill="#ffffb3" stroke="black" points="1182.93,-122 1049.07,-122 1049.07,-86 1182.93,-86 1182.93,-122"/>
<text text-anchor="middle" x="1116" y="-99.8" font-family="Times,serif" font-size="14.00">FavoritesComponent</text>
</g>
<!-- FavoritesComponent&#45;&gt;AppModule -->
<g id="edge4" class="edge">
<title>FavoritesComponent&#45;&gt;AppModule</title>
<path fill="none" stroke="black" d="M1116,-122.24C1116,-137.57 1116,-157 1116,-157 1116,-157 954.83,-157 954.83,-157"/>
<polygon fill="black" stroke="black" points="954.83,-153.5 944.83,-157 954.83,-160.5 954.83,-153.5"/>
</g>
<!-- FooterComponent -->
<g id="node5" class="node">
<title>FooterComponent</title>
<polygon fill="#ffffb3" stroke="black" points="1030.88,-122 913.12,-122 913.12,-86 1030.88,-86 1030.88,-122"/>
<text text-anchor="middle" x="972" y="-99.8" font-family="Times,serif" font-size="14.00">FooterComponent</text>
</g>
<!-- FooterComponent&#45;&gt;AppModule -->
<g id="edge5" class="edge">
<title>FooterComponent&#45;&gt;AppModule</title>
<path fill="none" stroke="black" d="M928.94,-122.11C928.94,-122.11 928.94,-140.99 928.94,-140.99"/>
<polygon fill="black" stroke="black" points="925.44,-140.99 928.94,-150.99 932.44,-140.99 925.44,-140.99"/>
</g>
<!-- HeaderComponent -->
<g id="node6" class="node">
<title>HeaderComponent</title>
<polygon fill="#ffffb3" stroke="black" points="894.74,-122 773.26,-122 773.26,-86 894.74,-86 894.74,-122"/>
<text text-anchor="middle" x="834" y="-99.8" font-family="Times,serif" font-size="14.00">HeaderComponent</text>
</g>
<!-- HeaderComponent&#45;&gt;AppModule -->
<g id="edge6" class="edge">
<title>HeaderComponent&#45;&gt;AppModule</title>
<path fill="none" stroke="black" d="M878.02,-122.11C878.02,-122.11 878.02,-140.99 878.02,-140.99"/>
<polygon fill="black" stroke="black" points="874.52,-140.99 878.02,-150.99 881.52,-140.99 874.52,-140.99"/>
</g>
<!-- HomeComponent -->
<g id="node7" class="node">
<title>HomeComponent</title>
<polygon fill="#ffffb3" stroke="black" points="754.55,-122 639.45,-122 639.45,-86 754.55,-86 754.55,-122"/>
<text text-anchor="middle" x="697" y="-99.8" font-family="Times,serif" font-size="14.00">HomeComponent</text>
</g>
<!-- HomeComponent&#45;&gt;AppModule -->
<g id="edge7" class="edge">
<title>HomeComponent&#45;&gt;AppModule</title>
<path fill="none" stroke="black" d="M697,-122.24C697,-137.57 697,-157 697,-157 697,-157 851.31,-157 851.31,-157"/>
<polygon fill="black" stroke="black" points="851.31,-160.5 861.31,-157 851.31,-153.5 851.31,-160.5"/>
</g>
<!-- TextLengthPipe -->
<g id="node8" class="node">
<title>TextLengthPipe</title>
<polygon fill="#ffffb3" stroke="black" points="621.2,-122 514.8,-122 514.8,-86 621.2,-86 621.2,-122"/>
<text text-anchor="middle" x="568" y="-99.8" font-family="Times,serif" font-size="14.00">TextLengthPipe</text>
</g>
<!-- TextLengthPipe&#45;&gt;AppModule -->
<g id="edge8" class="edge">
<title>TextLengthPipe&#45;&gt;AppModule</title>
<path fill="none" stroke="black" d="M568,-122.02C568,-139.37 568,-163 568,-163 568,-163 851.25,-163 851.25,-163"/>
<polygon fill="black" stroke="black" points="851.25,-166.5 861.25,-163 851.25,-159.5 851.25,-166.5"/>
</g>
<!-- AppComponent  -->
<g id="node11" class="node">
<title>AppComponent </title>
<polygon fill="#80b1d3" stroke="black" points="957.44,-252 848.56,-252 848.56,-216 957.44,-216 957.44,-252"/>
<text text-anchor="middle" x="903" y="-229.8" font-family="Times,serif" font-size="14.00">AppComponent </text>
</g>
<!-- AppModule&#45;&gt;AppComponent  -->
<g id="edge10" class="edge">
<title>AppModule&#45;&gt;AppComponent </title>
<path fill="none" stroke="black" stroke-dasharray="1,5" d="M903,-187.11C903,-187.11 903,-205.99 903,-205.99"/>
<polygon fill="black" stroke="black" points="899.5,-205.99 903,-215.99 906.5,-205.99 899.5,-205.99"/>
</g>
<!-- AppRoutingModule -->
<g id="node10" class="node">
<title>AppRoutingModule</title>
<polygon fill="#8dd3c7" stroke="black" points="1771.27,-122 1768.27,-126 1747.27,-126 1744.27,-122 1642.73,-122 1642.73,-86 1771.27,-86 1771.27,-122"/>
<text text-anchor="middle" x="1707" y="-99.8" font-family="Times,serif" font-size="14.00">AppRoutingModule</text>
</g>
<!-- AppRoutingModule&#45;&gt;AppModule -->
<g id="edge9" class="edge">
<title>AppRoutingModule&#45;&gt;AppModule</title>
<path fill="none" stroke="black" d="M1707,-122.25C1707,-145.02 1707,-181 1707,-181 1707,-181 954.81,-181 954.81,-181"/>
<polygon fill="black" stroke="black" points="954.81,-177.5 944.81,-181 954.81,-184.5 954.81,-177.5"/>
</g>
<!-- CharacterService -->
<g id="node12" class="node">
<title>CharacterService</title>
<ellipse fill="#fdb462" stroke="black" cx="413" cy="-104" rx="77.54" ry="18"/>
<text text-anchor="middle" x="413" y="-99.8" font-family="Times,serif" font-size="14.00">CharacterService</text>
</g>
<!-- CharacterService&#45;&gt;AppModule -->
<g id="edge11" class="edge">
<title>CharacterService&#45;&gt;AppModule</title>
<path fill="none" stroke="black" d="M413,-122.11C413,-141.34 413,-169 413,-169 413,-169 851.22,-169 851.22,-169"/>
<polygon fill="black" stroke="black" points="851.22,-172.5 861.22,-169 851.22,-165.5 851.22,-172.5"/>
</g>
<!-- ComicService -->
<g id="node13" class="node">
<title>ComicService</title>
<ellipse fill="#fdb462" stroke="black" cx="252" cy="-104" rx="65.99" ry="18"/>
<text text-anchor="middle" x="252" y="-99.8" font-family="Times,serif" font-size="14.00">ComicService</text>
</g>
<!-- ComicService&#45;&gt;AppModule -->
<g id="edge12" class="edge">
<title>ComicService&#45;&gt;AppModule</title>
<path fill="none" stroke="black" d="M252,-122.28C252,-143.32 252,-175 252,-175 252,-175 851.29,-175 851.29,-175"/>
<polygon fill="black" stroke="black" points="851.29,-178.5 861.29,-175 851.29,-171.5 851.29,-178.5"/>
</g>
<!-- FavoriteService -->
<g id="node14" class="node">
<title>FavoriteService</title>
<ellipse fill="#fdb462" stroke="black" cx="96" cy="-104" rx="72.35" ry="18"/>
<text text-anchor="middle" x="96" y="-99.8" font-family="Times,serif" font-size="14.00">FavoriteService</text>
</g>
<!-- FavoriteService&#45;&gt;AppModule -->
<g id="edge13" class="edge">
<title>FavoriteService&#45;&gt;AppModule</title>
<path fill="none" stroke="black" d="M96,-122.25C96,-145.02 96,-181 96,-181 96,-181 851.31,-181 851.31,-181"/>
<polygon fill="black" stroke="black" points="851.31,-184.5 861.31,-181 851.31,-177.5 851.31,-184.5"/>
</g>
</g>
</svg>
